<mxfile host="app.diagrams.net" agent="Mozilla/5.0 (X11; Ubuntu; Linux x86_64; rv:137.0) Gecko/20100101 Firefox/137.0" version="26.2.14">
  <diagram name="PÃ¡gina-1" id="Xe1E3QS9tsMXV227uo1h">
    <mxGraphModel dx="1360" dy="795" grid="1" gridSize="10" guides="1" tooltips="1" connect="1" arrows="1" fold="1" page="1" pageScale="1" pageWidth="827" pageHeight="1169" math="0" shadow="0">
      <root>
        <mxCell id="0" />
        <mxCell id="1" parent="0" />
        <mxCell id="yfKHcnz_L4MGpfqQ30CX-8" value="" style="edgeStyle=orthogonalEdgeStyle;rounded=0;orthogonalLoop=1;jettySize=auto;html=1;" edge="1" parent="1" source="yfKHcnz_L4MGpfqQ30CX-1" target="yfKHcnz_L4MGpfqQ30CX-2">
          <mxGeometry relative="1" as="geometry" />
        </mxCell>
        <mxCell id="yfKHcnz_L4MGpfqQ30CX-1" value="Determinar si el usuario es mayor de edad" style="rounded=0;whiteSpace=wrap;html=1;" vertex="1" parent="1">
          <mxGeometry x="325" y="50" width="120" height="60" as="geometry" />
        </mxCell>
        <mxCell id="yfKHcnz_L4MGpfqQ30CX-9" value="" style="edgeStyle=orthogonalEdgeStyle;rounded=0;orthogonalLoop=1;jettySize=auto;html=1;" edge="1" parent="1" source="yfKHcnz_L4MGpfqQ30CX-2" target="yfKHcnz_L4MGpfqQ30CX-3">
          <mxGeometry relative="1" as="geometry" />
        </mxCell>
        <mxCell id="yfKHcnz_L4MGpfqQ30CX-2" value="Pedir edad al usuario" style="shape=parallelogram;perimeter=parallelogramPerimeter;whiteSpace=wrap;html=1;fixedSize=1;" vertex="1" parent="1">
          <mxGeometry x="320" y="160" width="150" height="60" as="geometry" />
        </mxCell>
        <mxCell id="yfKHcnz_L4MGpfqQ30CX-10" value="" style="edgeStyle=orthogonalEdgeStyle;rounded=0;orthogonalLoop=1;jettySize=auto;html=1;" edge="1" parent="1" source="yfKHcnz_L4MGpfqQ30CX-3" target="yfKHcnz_L4MGpfqQ30CX-5">
          <mxGeometry relative="1" as="geometry" />
        </mxCell>
        <mxCell id="yfKHcnz_L4MGpfqQ30CX-11" value="" style="edgeStyle=orthogonalEdgeStyle;rounded=0;orthogonalLoop=1;jettySize=auto;html=1;" edge="1" parent="1" source="yfKHcnz_L4MGpfqQ30CX-3" target="yfKHcnz_L4MGpfqQ30CX-4">
          <mxGeometry relative="1" as="geometry" />
        </mxCell>
        <mxCell id="yfKHcnz_L4MGpfqQ30CX-3" value="El valor ingresado es correcto" style="rhombus;whiteSpace=wrap;html=1;" vertex="1" parent="1">
          <mxGeometry x="340" y="250" width="100" height="90" as="geometry" />
        </mxCell>
        <mxCell id="yfKHcnz_L4MGpfqQ30CX-12" value="" style="edgeStyle=orthogonalEdgeStyle;rounded=0;orthogonalLoop=1;jettySize=auto;html=1;" edge="1" parent="1" source="yfKHcnz_L4MGpfqQ30CX-4" target="yfKHcnz_L4MGpfqQ30CX-6">
          <mxGeometry relative="1" as="geometry" />
        </mxCell>
        <mxCell id="yfKHcnz_L4MGpfqQ30CX-13" value="" style="edgeStyle=orthogonalEdgeStyle;rounded=0;orthogonalLoop=1;jettySize=auto;html=1;" edge="1" parent="1" source="yfKHcnz_L4MGpfqQ30CX-4" target="yfKHcnz_L4MGpfqQ30CX-7">
          <mxGeometry relative="1" as="geometry" />
        </mxCell>
        <mxCell id="yfKHcnz_L4MGpfqQ30CX-4" value="edad&amp;nbsp; es mayor que 18" style="rhombus;whiteSpace=wrap;html=1;" vertex="1" parent="1">
          <mxGeometry x="320" y="380" width="120" height="90" as="geometry" />
        </mxCell>
        <mxCell id="yfKHcnz_L4MGpfqQ30CX-5" value="Ingresa un numero correcto" style="shape=parallelogram;perimeter=parallelogramPerimeter;whiteSpace=wrap;html=1;fixedSize=1;" vertex="1" parent="1">
          <mxGeometry x="530" y="260" width="180" height="60" as="geometry" />
        </mxCell>
        <mxCell id="yfKHcnz_L4MGpfqQ30CX-6" value="eres menor de edad" style="shape=parallelogram;perimeter=parallelogramPerimeter;whiteSpace=wrap;html=1;fixedSize=1;" vertex="1" parent="1">
          <mxGeometry x="510" y="410" width="150" height="60" as="geometry" />
        </mxCell>
        <mxCell id="yfKHcnz_L4MGpfqQ30CX-7" value="Eres mayor de edad" style="shape=parallelogram;perimeter=parallelogramPerimeter;whiteSpace=wrap;html=1;fixedSize=1;" vertex="1" parent="1">
          <mxGeometry x="295" y="540" width="180" height="60" as="geometry" />
        </mxCell>
        <mxCell id="yfKHcnz_L4MGpfqQ30CX-14" value="NO" style="text;html=1;align=center;verticalAlign=middle;resizable=0;points=[];autosize=1;strokeColor=none;fillColor=none;" vertex="1" parent="1">
          <mxGeometry x="450" y="400" width="40" height="30" as="geometry" />
        </mxCell>
        <mxCell id="yfKHcnz_L4MGpfqQ30CX-15" value="NO" style="text;html=1;align=center;verticalAlign=middle;resizable=0;points=[];autosize=1;strokeColor=none;fillColor=none;" vertex="1" parent="1">
          <mxGeometry x="445" y="260" width="40" height="30" as="geometry" />
        </mxCell>
        <mxCell id="yfKHcnz_L4MGpfqQ30CX-16" value="SI" style="text;html=1;align=center;verticalAlign=middle;resizable=0;points=[];autosize=1;strokeColor=none;fillColor=none;" vertex="1" parent="1">
          <mxGeometry x="390" y="350" width="30" height="30" as="geometry" />
        </mxCell>
        <mxCell id="yfKHcnz_L4MGpfqQ30CX-17" value="SI" style="text;html=1;align=center;verticalAlign=middle;resizable=0;points=[];autosize=1;strokeColor=none;fillColor=none;" vertex="1" parent="1">
          <mxGeometry x="390" y="500" width="30" height="30" as="geometry" />
        </mxCell>
      </root>
    </mxGraphModel>
  </diagram>
</mxfile>
